<svg xmlns="http://www.w3.org/2000/svg" viewBox="0 0 120 120" fill="none" stroke="#1a4d7a" stroke-width="1.4" stroke-linecap="round" stroke-linejoin="round">
  <!-- Mehndi corner — fine line, paisley & vine (top-left) -->
  <path d="M 6 118 Q 24 92 48 72 Q 72 52 96 36 Q 108 26 116 12" />
  <path d="M 14 110 Q 30 88 52 72 Q 72 56 90 44 Q 104 34 114 22" />
  <path d="M 30 94 Q 44 80 62 70 Q 78 60 92 52" />
  <!-- Paisley curves -->
  <path d="M 58 74 Q 68 66 76 72 Q 70 80 60 78 Q 54 76 58 74" />
  <path d="M 82 52 Q 92 44 100 50 Q 96 58 86 56 Q 80 54 82 52" />
  <path d="M 100 32 Q 108 24 116 30 Q 112 38 104 36" />
</svg>
